<svg xmlns="http://www.w3.org/2000/svg" xmlns:xlink="http://www.w3.org/1999/xlink" viewBox="0 0 79.57 88.03"><defs><style>.cls-1{isolation:isolate;}.cls-2{fill:#fff;}.cls-3{fill:#ff9232;}.cls-4,.cls-5,.cls-6{mix-blend-mode:color-burn;}.cls-4{fill:url(#radial-gradient);}.cls-5{fill:url(#radial-gradient-2);}.cls-6{fill:url(#radial-gradient-3);}</style><radialGradient id="radial-gradient" cx="54.63" cy="50.52" r="36.4" gradientUnits="userSpaceOnUse"><stop offset="0.4" stop-color="#fff"/><stop offset="0.45" stop-color="#f7fafc"/><stop offset="0.53" stop-color="#e2ebf5"/><stop offset="0.63" stop-color="#bfd3e8"/><stop offset="0.74" stop-color="#8fb1d6"/><stop offset="0.86" stop-color="#5086c0"/><stop offset="0.99" stop-color="#0653a5"/><stop offset="1" stop-color="#004fa3"/></radialGradient><radialGradient id="radial-gradient-2" cx="18.17" cy="50.52" r="36.4" xlink:href="#radial-gradient"/><radialGradient id="radial-gradient-3" cx="29.7" cy="54.22" r="25.67" gradientUnits="userSpaceOnUse"><stop offset="0.49" stop-color="#00547f"/><stop offset="0.5" stop-color="#065882"/><stop offset="0.61" stop-color="#508aa7"/><stop offset="0.72" stop-color="#8fb4c7"/><stop offset="0.81" stop-color="#bfd4df"/><stop offset="0.89" stop-color="#e2ecf0"/><stop offset="0.96" stop-color="#f7fafb"/><stop offset="1" stop-color="#fff"/></radialGradient></defs><title>Hexagon_Red</title><g class="cls-1"><g id="Layer_1" data-name="Layer 1"><polyline class="cls-2" points="79.57 19.12 79.57 65.06 39.78 88.03"/><polyline class="cls-2" points="39.78 88.03 0 65.06 0 19.12"/><polyline class="cls-3" points="39.78 0 76.24 21.05 76.24 63.14 39.78 84.19"/><polyline class="cls-3" points="39.78 84.19 3.33 63.14 3.33 21.05 39.78 0"/><polyline class="cls-4" points="39.78 0 76.24 21.05 76.24 63.14 39.78 84.19"/><polyline class="cls-5" points="39.78 84.19 3.33 63.14 3.33 21.05 39.78 0"/><polyline class="cls-6" points="29.7 81.66 5.93 67.94 5.93 40.5 29.7 26.78 53.46 40.5 53.46 67.94 29.7 81.66"/><polyline class="cls-2" points="39.6 5.09 71.57 23.55 71.57 60.47 39.6 78.92"/><polyline class="cls-2" points="39.6 78.92 7.63 60.47 7.63 23.55 39.6 5.09"/></g></g></svg>