<svg xmlns="http://www.w3.org/2000/svg" xmlns:xlink="http://www.w3.org/1999/xlink" viewBox="0 0 79.57 91.88"><defs><style>.cls-1{isolation:isolate;}.cls-2{fill:#fff;}.cls-3{fill:#0fb5ff;}.cls-4,.cls-5{mix-blend-mode:color-burn;}.cls-4{fill:url(#radial-gradient);}.cls-5{opacity:0.7;fill:url(#radial-gradient-2);}</style><radialGradient id="radial-gradient" cx="33.01" cy="54.37" r="49.86" gradientUnits="userSpaceOnUse"><stop offset="0.4" stop-color="#fff"/><stop offset="0.45" stop-color="#f7fafc"/><stop offset="0.53" stop-color="#e2ebf5"/><stop offset="0.63" stop-color="#bfd3e8"/><stop offset="0.74" stop-color="#8fb1d6"/><stop offset="0.86" stop-color="#5086c0"/><stop offset="0.99" stop-color="#0653a5"/><stop offset="1" stop-color="#004fa3"/></radialGradient><radialGradient id="radial-gradient-2" cx="31.54" cy="61.25" r="22.56" gradientUnits="userSpaceOnUse"><stop offset="0.49" stop-color="#00547f"/><stop offset="0.57" stop-color="#035681"/><stop offset="0.64" stop-color="#0e5d86"/><stop offset="0.7" stop-color="#1f698f"/><stop offset="0.76" stop-color="#37799b"/><stop offset="0.81" stop-color="#578eab"/><stop offset="0.87" stop-color="#7ea8be"/><stop offset="0.92" stop-color="#acc7d5"/><stop offset="0.97" stop-color="#e0eaef"/><stop offset="1" stop-color="#fff"/></radialGradient></defs><title>Hexagon_Blue</title><g class="cls-1"><g id="Layer_1" data-name="Layer 1"><polygon class="cls-2" points="79.57 68.91 39.78 91.88 0 68.91 0 22.97 39.78 0 79.57 22.97 79.57 68.91"/><polygon class="cls-3" points="76.24 66.99 39.78 88.03 3.33 66.99 3.33 24.89 39.78 3.85 76.24 24.89 76.24 66.99"/><polygon class="cls-4" points="76.24 66.99 39.78 88.03 3.33 66.99 3.33 24.89 39.78 3.85 76.24 24.89 76.24 66.99"/><polygon class="cls-5" points="52.43 73.31 31.54 85.37 10.65 73.31 10.65 49.19 31.54 37.13 52.43 49.19 52.43 73.31"/><polygon class="cls-2" points="72.19 64.77 40.01 83.34 7.83 64.77 7.83 27.61 40.01 9.03 72.19 27.61 72.19 64.77"/></g></g></svg>