<svg xmlns="http://www.w3.org/2000/svg" xmlns:xlink="http://www.w3.org/1999/xlink" viewBox="0 0 79.57 91.88"><defs><style>.cls-1{isolation:isolate;}.cls-2{fill:#fff;}.cls-3{fill:#00c29d;}.cls-4,.cls-5,.cls-6{mix-blend-mode:color-burn;}.cls-4{fill:url(#radial-gradient);}.cls-5{fill:url(#radial-gradient-2);}.cls-6{fill:url(#radial-gradient-3);}</style><radialGradient id="radial-gradient" cx="54.63" cy="54.37" r="36.4" gradientUnits="userSpaceOnUse"><stop offset="0.4" stop-color="#fff"/><stop offset="0.45" stop-color="#f7fafc"/><stop offset="0.53" stop-color="#e2ebf5"/><stop offset="0.63" stop-color="#bfd3e8"/><stop offset="0.74" stop-color="#8fb1d6"/><stop offset="0.86" stop-color="#5086c0"/><stop offset="0.99" stop-color="#0653a5"/><stop offset="1" stop-color="#004fa3"/></radialGradient><radialGradient id="radial-gradient-2" cx="18.17" cy="54.37" r="36.4" xlink:href="#radial-gradient"/><radialGradient id="radial-gradient-3" cx="35.53" cy="54.2" r="29.66" gradientUnits="userSpaceOnUse"><stop offset="0.7" stop-color="#00547f"/><stop offset="0.7" stop-color="#065882"/><stop offset="0.77" stop-color="#508aa7"/><stop offset="0.83" stop-color="#8fb4c7"/><stop offset="0.89" stop-color="#bfd4df"/><stop offset="0.93" stop-color="#e2ecf0"/><stop offset="0.97" stop-color="#f7fafb"/><stop offset="1" stop-color="#fff"/></radialGradient></defs><title>Hexagon_Green</title><g class="cls-1"><g id="Layer_1" data-name="Layer 1"><polyline class="cls-2" points="39.79 0 79.57 22.97 79.57 68.91 39.79 91.88"/><polyline class="cls-2" points="39.79 91.88 0 68.91 0 22.97 39.79 0"/><polyline class="cls-3" points="39.79 3.85 76.24 24.9 76.24 66.99 39.79 88.03"/><polyline class="cls-3" points="39.79 88.03 3.33 66.99 3.33 24.9 39.79 3.85"/><polyline class="cls-4" points="39.79 3.85 76.24 24.9 76.24 66.99 39.79 88.03"/><polyline class="cls-5" points="39.79 88.03 3.33 66.99 3.33 24.9 39.79 3.85"/><polyline class="cls-6" points="35.53 85.91 8.07 70.06 8.07 38.35 35.53 22.5 62.99 38.35 62.99 70.06 35.53 85.91"/><polyline class="cls-2" points="39.79 8.93 71.97 27.5 71.97 64.66 39.79 83.23"/><polyline class="cls-2" points="39.79 83.23 7.62 64.66 7.62 27.5 39.79 8.93"/></g></g></svg>